<?xml version="1.0" encoding="UTF-8"?>
<svg width="125px" height="35px" viewBox="0 0 125 35" version="1.1" xmlns="http://www.w3.org/2000/svg" xmlns:xlink="http://www.w3.org/1999/xlink">
    <title>分组 4</title>
    <g id="其他" stroke="none" stroke-width="1" fill="none" fill-rule="evenodd">
        <g id="邮件" transform="translate(-144.000000, -112.000000)">
            <g id="编组-12" transform="translate(122.000000, 100.000000)">
                <g id="分组-4" transform="translate(22.000000, 12.000000)">
                    <g id="分组-5" transform="translate(40.694079, 2.683875)" fill="#222222">
                        <g id="分组-2" transform="translate(0.000000, 0.000000)">
                            <path d="M8.46939794,4.15871399 L12.582537,4.15871399 L12.582537,1.99868282 L8.46939794,1.99868282 L8.46939794,4.15871399 Z M6.96341716,5.52890471 L14.0725116,5.52890471 L14.0725116,0.644747506 L6.96341716,0.644747506 L6.96341716,5.52890471 Z M14.6067698,6.77002106 L14.6067698,8.15635953 L11.2062273,8.15635953 L11.2062273,9.83271166 L14.1049564,9.83271166 L14.1049564,11.2029024 L11.2062273,11.2029024 L11.2062273,12.9919658 L14.995567,12.9919658 L14.995567,14.4428953 L5.84590913,14.4428953 L5.84590913,12.9919658 L9.65157933,12.9919658 L9.65157933,11.2029024 L6.833746,11.2029024 L6.833746,9.83271166 L9.65157933,9.83271166 L9.65157933,8.15635953 L6.46138752,8.15635953 L6.46138752,6.77002106 L14.6067698,6.77002106 Z M2.63960307,4.40049969 L2.63960307,2.45006636 C2.02412468,2.53069748 1.37652591,2.61122094 0.72871084,2.6757043 L0.42102572,1.24113787 C2.42903613,1.07998329 4.2104735,0.741418724 5.78123578,0.257954981 L6.3156021,1.70866917 C5.61933608,1.90190395 4.89062524,2.06327383 4.11324716,2.20817301 L4.11324716,4.40049969 L5.9755803,4.40049969 L5.9755803,5.86725398 L4.11324716,5.86725398 L4.11324716,6.54427546 C4.841958,7.2214046 5.57066884,7.97894954 6.3156021,8.78493775 L5.45743639,10.0744974 C4.93918434,9.23632129 4.50182805,8.54315205 4.11324716,7.99520495 L4.11324716,14.9264667 L2.63960307,14.9264667 L2.63960307,8.20469514 C2.12135101,9.5587381 1.47364409,10.8158945 0.680259897,11.9442996 L0,10.2356519 C1.13351415,8.94609233 1.94333706,7.49537815 2.46148096,5.86725398 L0.404803306,5.86725398 L0.404803306,4.40049969 L2.63960307,4.40049969 Z" id="Fill-16"></path>
                            <path d="M26.0644901,6.67332831 C26.9065416,6.18986456 27.6838115,5.65774226 28.4125223,5.04520414 L21.5464397,5.04520414 L21.5464397,3.73960443 L30.3397451,3.73960443 L30.3397451,4.83571395 C29.3680225,5.83515224 28.3316266,6.70562381 27.1981124,7.4147255 L27.7323706,7.80173333 L27.5219118,8.01122352 L31.6674957,8.01122352 L31.6674957,9.20400425 C30.9874521,10.4612683 30.2587412,11.4928945 29.4489183,12.3312859 L28.2991817,11.412371 C28.914552,10.8643163 29.4813631,10.2033349 29.9996152,9.41360209 L26.7608643,9.41360209 L26.7608643,13.3949922 C26.7608643,14.4750616 26.2263898,15.0231164 25.1577653,15.0231164 L22.7447353,15.0231164 L22.4209359,13.5724022 C23.1982059,13.6368856 23.9269167,13.6852212 24.6395133,13.6852212 C25.0280942,13.6852212 25.238553,13.4595832 25.238553,13.0403876 L25.238553,9.41360209 L20.60727,9.41360209 L20.60727,8.01122352 L25.9187047,8.01122352 C25.1414348,7.49546427 24.1860427,6.96355727 23.0848653,6.41539486 L23.9916982,5.52888318 C24.7367396,5.91567571 25.4330056,6.28642813 26.0644901,6.67332831 M26.1454941,1.32163981 L31.9105074,1.32163981 L31.9105074,2.74027379 L20.089018,2.74027379 L20.089018,6.49591832 C20.0242365,10.0261402 19.4575335,12.8630852 18.3724703,14.9908209 L17.2064032,13.9591947 C18.0808994,12.169916 18.53437,9.68757565 18.5667066,6.49591832 L18.5667066,1.32163981 L24.5746236,1.32163981 C24.3966097,0.950995036 24.202157,0.596282715 23.9916982,0.273973553 L25.5462381,0.0160401019 C25.7406907,0.402832627 25.9511495,0.838176064 26.1454941,1.32163981" id="Fill-17"></path>
                            <path d="M48.2585286,13.7980402 L47.4164771,15.0715597 C45.5703664,14.1526448 43.6756966,13.4272877 41.7323595,12.9115285 L42.4935152,11.7670834 C44.5988601,12.3312859 46.509536,13.0081997 48.2585286,13.7980402 L48.2585286,13.7980402 Z M38.0888053,3.57844985 L44.3558483,3.57844985 L44.3558483,1.95032568 L38.0888053,1.95032568 L38.0888053,3.57844985 Z M36.5989388,4.90030496 L45.8457148,4.90030496 L45.8457148,0.596390367 L36.5989388,0.596390367 L36.5989388,4.90030496 Z M46.8011069,11.9927213 L45.2789037,11.9927213 L45.2789037,7.28586643 L37.16575,7.28586643 L37.16575,12.234507 L35.6436549,12.234507 L35.6436549,5.88348785 L46.8011069,5.88348785 L46.8011069,11.9927213 Z M42.137271,8.26915697 C41.9105898,10.6871216 41.4085601,12.2989904 40.6312902,13.1049786 C39.8214673,14.1043092 37.8459017,14.7651829 34.7204914,15.0553042 L34.1213436,13.6529257 C36.72861,13.5240666 38.461272,13.0403876 39.3033234,12.2022115 C40.0320342,11.412371 40.4531681,10.0584357 40.5827311,8.12404249 L42.137271,8.26915697 Z" id="Fill-18"></path>
                            <path d="M60.5579759,5.22261412 L55.8619115,5.22261412 C56.6067366,5.80285674 57.4002289,6.28642813 58.2585028,6.70562381 C59.1977806,6.25424028 59.9750505,5.77056123 60.5579759,5.22261412 L60.5579759,5.22261412 Z M54.8415216,13.0403876 L61.3676907,13.0403876 L61.3676907,11.1705853 L54.8415216,11.1705853 L54.8415216,13.0403876 Z M62.8737796,15.0392641 L61.3676907,15.0392641 L61.3676907,14.4266184 L54.8416298,14.4266184 L54.8416298,15.0392641 L53.3517633,15.0392641 L53.3517633,9.80050227 L62.8737796,9.80050227 L62.8737796,15.0392641 Z M64.6874455,4.44892142 L63.1327975,4.44892142 L63.1327975,2.5628638 L52.8012827,2.5628638 L52.8012827,4.44892142 L51.2466347,4.44892142 L51.2466347,1.19278073 L57.0277623,1.19278073 C56.8658626,0.870256268 56.7039629,0.547947106 56.5095103,0.257933451 L58.2099437,0 C58.3718434,0.354497018 58.5337431,0.741397194 58.6956428,1.19278073 L64.6874455,1.19278073 L64.6874455,4.44892142 Z M57.2221068,3.06258295 C57.0277623,3.35281191 56.8171954,3.64282556 56.6228509,3.91679911 L62.420309,3.91679911 L62.420309,5.14198301 C61.8373836,5.98005142 60.9953322,6.72166392 59.8617099,7.36638989 C61.5134761,7.94684781 63.3433644,8.28519707 65.351483,8.39801604 L65.0112449,9.78435452 C62.4527539,9.63924004 60.1855093,9.10733303 58.2099437,8.18852585 C56.3314963,8.97847396 53.9346887,9.60705218 51.0522902,10.0906236 L50.4693647,8.73658061 C52.9307376,8.38197594 54.9874152,7.9145523 56.6391814,7.35034979 C55.9590297,6.93126176 55.3436594,6.46383812 54.7606259,5.96401132 C54.161478,6.47987822 53.5299935,6.96355727 52.8659561,7.3826453 L51.8782273,6.20590467 C53.3680938,5.3677286 54.6472853,4.22306817 55.7161261,2.74027379 L57.2221068,3.06258295 Z" id="Fill-19"></path>
                            <path d="M81.2460336,2.04703996 L80.0477379,2.86917592 C79.6105979,2.27278556 79.0274562,1.61191183 78.2987454,0.886554734 L79.497041,0.144942236 C80.2420824,0.854259226 80.8250078,1.49909285 81.2460336,2.04703996 L81.2460336,2.04703996 Z M81.5376044,4.40052122 L77.6185936,5.01305934 C77.6510385,5.62559746 77.6833751,6.20584008 77.7482648,6.75400248 L81.9425159,6.01238999 L82.1690889,7.43102397 L77.9262788,8.17242116 L78.0235051,8.72058357 C78.1368457,9.36520189 78.2826311,9.94544451 78.4769756,10.4775668 C79.2056865,9.81658543 79.8696158,9.09122834 80.4687636,8.28524013 L81.650945,9.07497294 C80.8411221,10.1388946 79.9829564,11.0738495 79.0760153,11.8475422 C79.1246826,11.9443211 79.1732416,12.0409923 79.237915,12.1377712 C79.7561671,12.8954238 80.2096376,13.2822163 80.6306633,13.2822163 C80.9544627,13.2822163 81.213805,12.4923759 81.4403781,10.9126949 L82.7683449,11.7831665 C82.3148744,13.7980832 81.650945,14.8135616 80.8088936,14.8135616 C79.9666258,14.7974139 79.1571274,14.3138425 78.3797493,13.3628474 C78.2178496,13.1533572 78.0720642,12.9437594 77.9425012,12.7180138 C76.7118688,13.5561899 75.4000163,14.168728 73.9911537,14.5557358 L73.0844289,13.3305519 C74.6551912,12.8791684 76.0478314,12.2505902 77.27868,11.4124141 C77.019554,10.8159161 76.8088789,10.1712978 76.6307568,9.47802087 C76.5336386,9.1234162 76.4688571,8.78495928 76.420298,8.44639471 L73.9425946,8.88173815 L73.7321358,7.46310417 L76.2098392,7.02797604 C76.1450577,6.44773342 76.1126129,5.86727551 76.080168,5.25473739 L73.829254,5.60934206 L73.6187952,4.19103103 L76.0478314,3.8040232 L76.0478314,0.161197642 L77.5863651,0.161197642 L77.5863651,3.56234516 L81.3108151,2.98199489 L81.5376044,4.40052122 Z M70.1371407,3.0303305 L70.1371407,0.161197642 L71.6106767,0.161197642 L71.6106767,3.0303305 L73.2949958,3.0303305 L73.2949958,4.46500458 L71.6106767,4.46500458 L71.6106767,5.15817382 C72.2908284,5.99634989 72.9709802,6.93119717 73.6673543,7.96282332 L72.7604132,9.34916179 C72.3232732,8.30149554 71.9345842,7.43102397 71.6106767,6.72170698 L71.6106767,14.9586761 L70.1371407,14.9586761 L70.1371407,7.14079501 C69.6188887,8.52702583 68.9874042,9.78428993 68.2262485,10.9449905 L67.5623192,9.28467843 C68.7119476,7.8661521 69.553999,6.27032344 70.0722511,4.46500458 L68.031904,4.46500458 L68.031904,3.0303305 L70.1371407,3.0303305 Z" id="Fill-20"></path>
                        </g>
                        <text id="程序员自由工作平台" fill-rule="nonzero" font-family="PingFangSC-Regular, PingFang SC" font-size="7.96068075" font-weight="normal" letter-spacing="1.43904596">
                            <tspan x="1.11801339" y="26.7776094">程序员自由工作平台</tspan>
                            <tspan x="85.7155538" y="26.7776094"> </tspan>
                        </text>
                    </g>
                    <g id="分组">
                        <rect id="矩形" fill="#1E84FF" x="0" y="0" width="34.540853" height="34.903116" rx="8.29439261"></rect>
                        <polygon id="Fill-12" fill="#FFFFFF" points="7.80668636 7.67868552 6.57488468 8.91946206 10.8238587 13.1993939 6.56276207 17.4915367 7.79456375 18.7323132 13.2740729 13.2129717 13.2727159 13.2116048 13.286105 13.198027"></polygon>
                        <polygon id="Fill-14" fill="#FFFFFF" points="15.8887924 18.8339277 23.3975717 18.8339277 23.3975717 17.1025268 15.8887924 17.1025268"></polygon>
                    </g>
                </g>
            </g>
        </g>
    </g>
</svg>